<svg width="29" height="32" viewBox="0 0 29 32" fill="none" xmlns="http://www.w3.org/2000/svg">
<path d="M21.9312 8.6464C21.6288 8.3456 21.2144 8.1936 20.8 8.1936C20.3856 8.1936 19.9712 8.3456 19.6688 8.6464L16 12.3152V1.6C16 1.17565 15.8314 0.768687 15.5314 0.468629C15.2313 0.168571 14.8243 0 14.4 0C13.9757 0 13.5687 0.168571 13.2686 0.468629C12.9686 0.768687 12.8 1.17565 12.8 1.6V12.3152L9.1312 8.6464C8.98295 8.4973 8.8067 8.37899 8.61256 8.29825C8.41843 8.21751 8.21025 8.17594 8 8.17594C7.78975 8.17594 7.58157 8.21751 7.38743 8.29825C7.1933 8.37899 7.01705 8.4973 6.8688 8.6464C6.56885 8.94644 6.40034 9.35334 6.40034 9.7776C6.40034 10.2019 6.56885 10.6088 6.8688 10.9088L14.4 18.4L21.9344 10.9056C22.233 10.6053 22.4003 10.1988 22.3997 9.77534C22.3991 9.35186 22.2306 8.94589 21.9312 8.6464ZM28.7792 22.4C28.7861 22.2292 28.765 22.0584 28.7168 21.8944L25.5168 12.2944C25.4112 11.9757 25.2077 11.6983 24.9354 11.5019C24.6631 11.3054 24.3358 11.1998 24 11.2H23.6496C23.4992 11.5008 23.3136 11.7888 23.0624 12.04L20.6912 14.4H22.848L25.5152 22.4H3.2864L5.9536 14.4H8.1104L5.7376 12.04C5.49713 11.7941 5.29874 11.5103 5.1504 11.2H4.8C4.46421 11.1998 4.1369 11.3054 3.86459 11.5019C3.59229 11.6983 3.38885 11.9757 3.2832 12.2944L0.0832001 21.8944C0.0349782 22.0584 0.0139001 22.2292 0.0208 22.4C1.78814e-08 22.4 0 30.4 0 30.4C0 30.8243 0.168571 31.2313 0.468629 31.5314C0.768687 31.8314 1.17565 32 1.6 32H27.2C27.6243 32 28.0313 31.8314 28.3314 31.5314C28.6314 31.2313 28.8 30.8243 28.8 30.4C28.8 30.4 28.8 22.4 28.7792 22.4Z" fill="black"/>
</svg>
