<svg width="100" height="100" viewBox="0 0 100 100" fill="none" xmlns="http://www.w3.org/2000/svg">
<path d="M90.625 15.625H9.375C7.64648 15.625 6.25 17.0215 6.25 18.75V81.25C6.25 82.9785 7.64648 84.375 9.375 84.375H90.625C92.3535 84.375 93.75 82.9785 93.75 81.25V18.75C93.75 17.0215 92.3535 15.625 90.625 15.625ZM86.7188 26.4453V77.3438H13.2812V26.4453L10.5859 24.3457L14.4238 19.4141L18.6035 22.666H81.4062L85.5859 19.4141L89.4238 24.3457L86.7188 26.4453ZM81.4062 22.6562L50 47.0703L18.5937 22.6562L14.4141 19.4043L10.5762 24.3359L13.2715 26.4355L46.6309 52.373C47.5902 53.1184 48.7705 53.523 49.9854 53.523C51.2002 53.523 52.3805 53.1184 53.3398 52.373L86.7188 26.4453L89.4141 24.3457L85.5762 19.4141L81.4062 22.6562Z" fill="black"/>
</svg>
