<svg width="24" height="24" viewBox="0 0 24 24" fill="none" xmlns="http://www.w3.org/2000/svg">
<g clip-path="url(#clip0_269_12)">
<path fill-rule="evenodd" clip-rule="evenodd" d="M20.131 3.16C19.5684 2.59759 18.8055 2.28164 18.01 2.28164C17.2145 2.28164 16.4516 2.59759 15.889 3.16L15.182 3.868L20.132 8.818L20.838 8.111C21.1166 7.83242 21.3377 7.50168 21.4885 7.13767C21.6392 6.77366 21.7169 6.38351 21.7169 5.9895C21.7169 5.59549 21.6392 5.20534 21.4885 4.84133C21.3377 4.47732 21.1166 4.14658 20.838 3.868L20.131 3.16ZM18.717 10.232L13.767 5.282L4.677 14.373C4.47809 14.572 4.33913 14.8228 4.276 15.097L3.247 19.552C3.20866 19.7174 3.21306 19.8898 3.25978 20.053C3.3065 20.2163 3.39401 20.3649 3.51406 20.4849C3.63411 20.605 3.78275 20.6925 3.94597 20.7392C4.10919 20.7859 4.28161 20.7903 4.447 20.752L8.903 19.724C9.17681 19.6607 9.42733 19.5218 9.626 19.323L18.717 10.232Z" fill="black"/>
</g>
<defs>
<clipPath id="clip0_269_12">
<rect width="24" height="24" fill="white"/>
</clipPath>
</defs>
</svg>
